<?xml version="1.0" encoding="utf-8"?>
<!-- Generator: Adobe Illustrator 23.0.6, SVG Export Plug-In . SVG Version: 6.00 Build 0)  -->
<svg version="1.1" id="Layer_1" xmlns="http://www.w3.org/2000/svg" xmlns:xlink="http://www.w3.org/1999/xlink" x="0px" y="0px"
	 viewBox="0 0 803.03 372.9" style="enable-background:new 0 0 803.03 372.9;" xml:space="preserve">
<style type="text/css">
	.st0{fill:#000;}
	.st1{clip-path:url(#SVGID_2_);}
	.st2{fill:#FFFFFF;}
	@media (max-height: 70px){
		.st0 {
			fill: #000;
		}
		.st2{
			fill: #999;
		}
	}
</style>
<title>G-SHOCK_MOVE_logo</title>
<polygon class="st0" points="0,37.17 16.78,20 92.02,20 109.56,37.17 109.56,65.21 76.19,65.21 76.19,54.13 33.01,54.13 
	33.01,124.08 76.57,124.08 76.57,106.17 58.1,106.17 58.1,72.05 110.33,72.05 110.33,140.29 92.77,157.46 17.92,157.46 0,140.29 "/>
<rect x="122.53" y="72.6" class="st0" width="50.33" height="33.38"/>
<polygon class="st0" points="183.87,88.26 183.87,37.54 201.03,20 277.6,20 295.69,37.17 295.69,65.27 261.39,65.27 261.39,54.32 
	217.81,54.32 217.81,72.99 278.53,72.99 295.9,91.09 295.9,141.06 277.95,157.46 201.41,157.46 183.69,140.68 183.69,113.72 
	217.44,113.72 217.44,124.28 260.62,124.28 260.62,106.36 202.16,106.36 "/>
<polygon class="st0" points="388.34,20 388.34,72.63 345.37,72.63 345.37,20 311.41,20 311.41,157.85 345.37,157.85 345.37,106.55 
	388.34,106.55 388.34,157.85 422.3,157.85 422.3,20 "/>
<path class="st0" d="M437.83,140.29V37.92L455.73,20h74.3l17.92,17.73v102.56l-17.73,17.16h-75.6l-16.78-16.6 M514.03,53.76h-42.25
	v70.32h42.25V53.76z"/>
<polygon class="st0" points="563.66,140.29 563.66,37.17 581.59,20 657.39,20 674.53,37.17 674.53,72.05 641.19,72.05 641.19,54.51 
	598.19,54.51 598.19,124.28 641.37,124.28 641.37,105.83 674.37,105.83 674.37,140.29 657.01,157.46 580.47,157.46 "/>
<polygon class="st0" points="803.03,20 761.55,20 724.78,70.83 724.78,20 690.08,20 690.08,157.46 724.78,157.46 724.78,108.06 
	760.99,157.46 802.09,157.46 754.02,88.83 "/>
<g>
	<g>
		<g>
			<defs>
				<rect id="SVGID_1_" x="-110.97" y="-334.55" width="1024" height="1024"/>
			</defs>
			<clipPath id="SVGID_2_">
				<use xlink:href="#SVGID_1_"  style="overflow:visible;"/>
			</clipPath>
			<g class="st1">
				<path class="st2" d="M150.44,209.89c0.2-1.22,1.27-2.12,2.51-2.1h25c1.68,0,2.6,0.63,2.95,2.1l20.28,81.48h0.85l51.33-81.48
					c0.75-1.37,2.21-2.18,3.77-2.1h24.57c0.88-0.1,1.67,0.54,1.76,1.42c0.03,0.23,0,0.46-0.07,0.68l-26.96,138.56
					c-0.2,1.22-1.27,2.12-2.51,2.1h-23.73c-0.88,0.1-1.67-0.54-1.76-1.42c-0.03-0.23,0-0.46,0.07-0.68l15.63-80.43h-0.84
					l-38.17,60.27c-0.88,1.68-2.62,2.74-4.52,2.73h-14.49c-1.7,0.17-3.23-1.04-3.46-2.73l-14.75-60.27h-0.87l-15.6,80.43
					c-0.2,1.22-1.27,2.12-2.51,2.1h-23.73c-0.88,0.1-1.67-0.54-1.76-1.42c-0.03-0.23,0-0.46,0.07-0.68L150.44,209.89z"/>
				<path class="st2" d="M293.03,318.25c-1.23-9.87-0.52-17.85,3.6-39.06s6.52-29.19,11.59-39.06
					c11.81-23.1,33.81-34.68,58.81-34.68s42.49,11.55,45.35,34.65c1.23,9.87,0.52,17.85-3.6,39.06s-6.52,29.19-11.59,39.06
					c-11.84,23.1-33.82,34.65-58.81,34.65S295.87,341.35,293.03,318.25 M369.22,309.85c2.66-5,4.63-12,8.27-30.66
					s4.35-25.62,3.65-30.66c-1.24-9.87-7.65-15.75-19.41-15.75s-20.47,5.88-25.54,15.75c-2.66,5-4.63,12-8.27,30.66
					s-4.35,25.62-3.64,30.66c1.23,9.87,7.64,15.75,19.4,15.75S364.15,319.72,369.22,309.85"/>
				<path class="st2" d="M459.34,350.59c-1.18,0.09-2.22-0.8-2.3-1.98c0-0.05-0.01-0.1-0.01-0.16L438.56,210.1
					c-0.13-1.47,0.87-2.31,2.34-2.31h27.3c1.09-0.18,2.12,0.56,2.3,1.65c0.02,0.15,0.03,0.3,0.02,0.45l10.36,93.66h0.63l45.92-93.66
					c0.48-1.31,1.75-2.16,3.14-2.1h27.09c1.26,0,1.94,0.84,1.24,2.31l-72.27,138.35c-0.49,1.2-1.62,2.02-2.92,2.1L459.34,350.59z"/>
				<path class="st2" d="M582.09,209.89c0.2-1.22,1.27-2.12,2.51-2.1h91.56c0.88-0.1,1.67,0.54,1.76,1.42
					c0.03,0.23,0,0.46-0.07,0.68l-4.37,22.47c-0.2,1.2-1.23,2.08-2.45,2.09h-61.59c-0.76-0.06-1.43,0.5-1.5,1.26l-5.51,28.35
					c-0.16,0.84,0.17,1.26,1,1.26h51.25c0.88-0.1,1.67,0.54,1.76,1.42c0.03,0.23,0,0.46-0.07,0.68l-4.34,22.27
					c-0.2,1.22-1.27,2.12-2.51,2.1H598.3c-0.76-0.06-1.43,0.5-1.5,1.26l-5.77,29.61c-0.16,0.84,0.17,1.26,1,1.26h61.53
					c0.88-0.1,1.67,0.54,1.76,1.42c0.03,0.23,0,0.46-0.07,0.68l-4.34,22.43c-0.2,1.22-1.27,2.12-2.51,2.1h-91.56
					c-0.88,0.1-1.67-0.54-1.76-1.42c-0.03-0.23,0-0.46,0.07-0.68L582.09,209.89z"/>
			</g>
		</g>
	</g>
</g>


</svg>
